<svg width="95" height="40" viewBox="0 0 95 40" fill="none" xmlns="http://www.w3.org/2000/svg">
<path d="M25.4373 13.384C25.2725 12.7123 25.0127 12.1229 24.6578 11.616C24.3029 11.0963 23.8593 10.6591 23.327 10.3042C22.8074 9.93663 22.199 9.66413 21.5019 9.48669C20.8175 9.29658 20.0634 9.20152 19.2395 9.20152C17.4651 9.20152 15.9506 9.62611 14.6958 10.4753C13.4537 11.3245 12.5032 12.5475 11.8441 14.1445C11.1977 15.7414 10.8745 17.6679 10.8745 19.924C10.8745 22.2053 11.185 24.1572 11.8061 25.7795C12.4271 27.4018 13.3523 28.6439 14.5817 29.5057C15.8112 30.3676 17.3384 30.7985 19.1635 30.7985C20.7731 30.7985 22.1103 30.564 23.1749 30.0951C24.2522 29.6261 25.057 28.9607 25.5894 28.0989C26.1217 27.237 26.3878 26.2231 26.3878 25.057L28.2129 25.2471H19.3156V17.7186H36.5779V23.1179C36.5779 26.6667 35.8238 29.7022 34.3156 32.2243C32.82 34.7338 30.7541 36.6603 28.1179 38.0038C25.4943 39.3346 22.4842 40 19.0875 40C15.2978 40 11.9708 39.1952 9.10646 37.5856C6.24208 35.9759 4.00507 33.6819 2.39544 30.7034C0.798479 27.725 0 24.1825 0 20.076C0 16.8568 0.487959 14.0051 1.46388 11.5209C2.45247 9.03676 3.82129 6.93916 5.57034 5.22814C7.31939 3.50444 9.34094 2.20532 11.635 1.3308C13.929 0.443599 16.3878 0 19.0114 0C21.3181 0 23.4601 0.329532 25.4373 0.988595C27.4271 1.63498 29.1825 2.5602 30.7034 3.76426C32.237 4.95564 33.4727 6.36882 34.4106 8.0038C35.3485 9.63878 35.9189 11.4322 36.1217 13.384H25.4373Z" fill="black"/>
<path d="M66.9251 39.6187V0.683345H94.3015V9.20046H77.4954V15.8925H92.6285V24.4096H77.4954V39.6187H66.9251Z" fill="black"/>
<path d="M38.0156 39.6187V0.683345H65.392V9.20046H48.5859V15.8925H63.719V24.4096H48.5859V39.6187H38.0156Z" fill="black"/>
</svg>
